<svg xmlns="http://www.w3.org/2000/svg" height="1000" width="1000"><title>man-in-glasses</title><path d="M926.3 794.3c-2.5-43.2-13.9-79.2-54.6-100.4-11.6-6-23.2-12.1-35.3-16.9-46.9-19-94-37.5-141.1-56.2-22.3-8.9-23.9-8.1-30.1 15-29.7 111.5-59.3 223-89 334.4-1.5 5.7-2.1 11.9-7.1 18.1-1.2-5.3-2.5-8.8-2.9-12.5-6.6-55.7-13.8-111.4-19.4-167.2-4.8-47.7-18.7-95.7 1.8-143.3 3.5-8.2-2.8-8.5-8.7-8.5-24.6.1-49.1.6-73.7-.2-13.1-.4-17.8 2-12.7 16.1 9.4 25.9 12.3 52.4 6.7 80-4.5 22.4-5.9 45.4-8.8 68.1l-20.7 166.6h-3.1c-.9-2.4-2-4.8-2.6-7.3-30.5-114.1-60.9-228.2-91.3-342.3-6.4-24.2-9.1-25.6-32.7-16.2-46 18.3-92.1 36.5-138.1 54.9-20.9 8.3-40.3 19.2-57.4 34.1-16.6 14.5-27.7 31.7-29.8 54.4-5.5 60.8-12.1 121.5-17.3 182.3-3.1 36.5 12.9 52.7 49.2 52.7 103.2-.1 206.3-.1 309.5-.1 159.4 0 318.7.1 478.1-.1 31.6 0 49.6-19.9 46.5-49.4-5.6-52-12.4-103.9-15.4-156.1zM297 392.1c10.9 2.9 14.1 8.6 17.7 17.2 21.4 51.6 48.4 99.6 92.4 135.8 32.9 27.1 70 41.2 113.4 34.4 31.3-4.9 57.5-19.9 80.4-40.8 40.5-37.2 67.1-83.6 87-134.2 1.4-3.7 1.3-10 6.2-10.1 17.5-.1 25-14.7 36.2-23.9 18.4-15 19.1-35.2 15.3-56.4-1.7-9.8-7.1-15.2-17.3-14-8.6 1-9.2-2.2-7.5-9.8 6.2-27.6 8.5-55.8 9.8-86.9-.5-7.4-.7-17.8-2.1-27.9-3.2-22-9.1-42.8-30.8-54.4-4.3-2.3-6.2-6.4-8.4-10.5-21.2-39.8-50.3-71.7-92-90.7C570.6 7.6 542.2 2.1 513.2.5 436-3.8 371.8 19.8 329.8 88.8c-2.9 4.8-7.1 6.7-11.6 8.6-16.8 7.1-29.7 18.6-37.6 35.2-10.2 21.2-15.5 43.7-16.9 67.1-1.9 31.1 3.2 61.6 9.4 91.9 1.1 5.5 1.4 8.7-5.7 8.5-6.7-.2-10.2 4.5-12.2 10.3-10.4 30.7 10.3 73.2 41.8 81.7zm48.4-67.3c-.8-9.7.7-18.4 11-22.8 4.8-2 9.2-3.5 12.9 2.2 3.4 5.1 9.1 5.1 14.5 4.7 6.7-.5 9.2 1.3 8.6 8.9-1 13 7.9 22.3 19.1 21.9 12-.5 19.8-10.5 17.7-23.9-.9-5.5.6-6.8 5.6-6.7 6 .1 12.3 1.1 17.7-2.9 3.4-2.5 4.6.6 6.2 2.6 10.9 13.1 11.3 31.6-.5 43.8-21.7 22.3-48.5 30.9-79 25.1-17.7-3.4-30.4-22.1-33.2-46.1-.5-2.2-.5-4.5-.6-6.8zm287.2 112.5c-17.5 32.6-38.4 62.5-68.5 84.8-44.9 33.3-91.9 31.4-135.7-6.2-36.5-31.2-59.8-71.7-78.2-115.4-.4-.9-.3-2-.6-4.4 31.6 14.3 62.3 11.2 92.1-2.5 27.5-12.7 47.8-31.5 48.3-64.7.1-7.4 5.4-6.3 9.7-6.1 4.5.1 9.9-1.7 11.3 6 7.7 45.9 42.9 74.9 91.9 76.1 8.3.2 16.6.6 25-1.3 7.7-1.8 14.8-5.2 23.7-7.7-4.8 15.7-12.1 28.5-19 41.4zm-25.2-57.4c-20.6-.4-39.8-6.3-56.5-18.9-10.1-7.7-17-17.3-17.3-30.6 0-8.1 3.6-14.8 7.9-21.2 2-3 4-3.2 8.2-2.7 13.6 1.8 23.6 3.9 23.4 21.8-.1 8.6 12.9 13.2 22.2 10.3 9.7-3 15.2-10.6 13.1-20-2.3-10.1 2.1-10.1 9.2-9.6 4.6.3 8.9-.1 12.8-3.4 9.3-7.9 20-4.5 24.2 7.3 9.8 28.6-17.3 67.6-47.2 67zm-253-220.1c3.2-3 4.8-3.5 7.9.3 41.3 52.2 99.4 65.7 161.6 68.8 25.6 1.3 51.1-.9 75.8-8.4 12.9-3.9 17.9-10 14.2-18.9-4.2-10.3-12.4-8.9-21.1-6.4-46.9 13.2-93.4 10.4-139.5-4.1-1.7-.5-3.3-1.6-5-2.3 24.3 4 48 6.4 72.1 5.5 41.6-1.6 79.5-13.7 112.3-39.4 9-7 11.9-4.2 16.6 3.7 13 21.8 18.9 45.7 21.9 70.4 2.7 21.9 4.2 44.1 2.5 70.1-14.8-23.4-36.1-19.9-56.4-19.9l-64.2.1c-12.9 0-23 5.8-29.6 16.4-3.6 5.8-7.6 7.8-14 6.8-3.4-.6-6.9-.8-10.3-.3-11.8 1.9-20.7-.8-27.4-12-4.9-8.1-14.1-11-23.9-10.9-26.4.1-52.7-.2-79.1 0-22.5.2-26.6 2-41.6 16.5-16.7-40.6-3.4-107.1 27.2-136z"/></svg>